<mxfile host="app.diagrams.net" agent="Mozilla/5.0 (Windows NT 10.0; Win64; x64) AppleWebKit/537.36 (KHTML, like Gecko) Chrome/132.0.0.0 Safari/537.36" version="26.0.11">
  <diagram id="R2lEEEUBdFMjLlhIrx00" name="Page-1">
    <mxGraphModel dx="2023" dy="613" grid="1" gridSize="10" guides="1" tooltips="1" connect="1" arrows="1" fold="1" page="1" pageScale="1" pageWidth="850" pageHeight="1100" math="0" shadow="0" extFonts="Permanent Marker^https://fonts.googleapis.com/css?family=Permanent+Marker">
      <root>
        <mxCell id="0" />
        <mxCell id="1" parent="0" />
        <mxCell id="lhh4k5kdtOsZ4-ZnuEZc-15" value="User-Interacts with the system to mange passwords" style="shape=umlActor;verticalLabelPosition=bottom;verticalAlign=top;html=1;outlineConnect=0;" vertex="1" parent="1">
          <mxGeometry x="40" y="240" width="30" height="60" as="geometry" />
        </mxCell>
        <mxCell id="lhh4k5kdtOsZ4-ZnuEZc-16" value="System-Stores passwords and authentication" style="shape=umlActor;verticalLabelPosition=bottom;verticalAlign=top;html=1;outlineConnect=0;" vertex="1" parent="1">
          <mxGeometry x="40" y="420" width="30" height="60" as="geometry" />
        </mxCell>
        <mxCell id="lhh4k5kdtOsZ4-ZnuEZc-25" value="User Authentication" style="swimlane;childLayout=stackLayout;horizontal=1;startSize=50;horizontalStack=0;rounded=1;fontSize=14;fontStyle=0;strokeWidth=2;resizeParent=0;resizeLast=1;shadow=0;align=center;arcSize=4;whiteSpace=wrap;html=1;" vertex="1" parent="1">
          <mxGeometry x="200" y="100" width="210" height="170" as="geometry" />
        </mxCell>
        <mxCell id="lhh4k5kdtOsZ4-ZnuEZc-26" value="1.secures registrations and logins&lt;br&gt;2.session management&lt;br&gt;3.password hashing with bcrypt&lt;div&gt;4.error handling for incorrect Attempts&lt;/div&gt;" style="align=left;strokeColor=none;fillColor=none;spacingLeft=4;fontSize=12;verticalAlign=top;resizable=0;rotatable=0;part=1;html=1;" vertex="1" parent="lhh4k5kdtOsZ4-ZnuEZc-25">
          <mxGeometry y="50" width="210" height="120" as="geometry" />
        </mxCell>
        <mxCell id="lhh4k5kdtOsZ4-ZnuEZc-27" value="Password Vault" style="swimlane;childLayout=stackLayout;horizontal=1;startSize=50;horizontalStack=0;rounded=1;fontSize=14;fontStyle=0;strokeWidth=2;resizeParent=0;resizeLast=1;shadow=0;dashed=0;align=center;arcSize=4;whiteSpace=wrap;html=1;" vertex="1" parent="1">
          <mxGeometry x="550" y="110" width="290" height="120" as="geometry" />
        </mxCell>
        <mxCell id="lhh4k5kdtOsZ4-ZnuEZc-28" value="1.Encrypted Passwords for safety using AES-256&lt;br&gt;2.add,edit,view and delete pass&lt;br&gt;3.Stored Passwords in a particular category" style="align=left;strokeColor=none;fillColor=none;spacingLeft=4;fontSize=12;verticalAlign=top;resizable=0;rotatable=0;part=1;html=1;" vertex="1" parent="lhh4k5kdtOsZ4-ZnuEZc-27">
          <mxGeometry y="50" width="290" height="70" as="geometry" />
        </mxCell>
        <mxCell id="lhh4k5kdtOsZ4-ZnuEZc-29" value="Password meter-How strong it is" style="swimlane;childLayout=stackLayout;horizontal=1;startSize=50;horizontalStack=0;rounded=1;fontSize=14;fontStyle=0;strokeWidth=2;resizeParent=0;resizeLast=1;shadow=0;dashed=0;align=center;arcSize=4;whiteSpace=wrap;html=1;" vertex="1" parent="1">
          <mxGeometry x="470" y="320" width="320" height="130" as="geometry" />
        </mxCell>
        <mxCell id="lhh4k5kdtOsZ4-ZnuEZc-30" value="1.Feedback on strength&lt;br&gt;2.colour of how strong the password(rRed,Yellow,Green)&lt;br&gt;3.checks for database breaches&lt;div&gt;4.warning for weak passwords&lt;/div&gt;" style="align=left;strokeColor=none;fillColor=none;spacingLeft=4;fontSize=12;verticalAlign=top;resizable=0;rotatable=0;part=1;html=1;" vertex="1" parent="lhh4k5kdtOsZ4-ZnuEZc-29">
          <mxGeometry y="50" width="320" height="80" as="geometry" />
        </mxCell>
        <mxCell id="lhh4k5kdtOsZ4-ZnuEZc-35" style="edgeStyle=orthogonalEdgeStyle;rounded=0;orthogonalLoop=1;jettySize=auto;html=1;entryX=0.5;entryY=1;entryDx=0;entryDy=0;" edge="1" parent="1" source="lhh4k5kdtOsZ4-ZnuEZc-31" target="lhh4k5kdtOsZ4-ZnuEZc-30">
          <mxGeometry relative="1" as="geometry" />
        </mxCell>
        <mxCell id="lhh4k5kdtOsZ4-ZnuEZc-31" value="Generates passwords" style="swimlane;childLayout=stackLayout;horizontal=1;startSize=50;horizontalStack=0;rounded=1;fontSize=14;fontStyle=0;strokeWidth=2;resizeParent=0;resizeLast=1;shadow=0;dashed=0;align=center;arcSize=4;whiteSpace=wrap;html=1;" vertex="1" parent="1">
          <mxGeometry x="445" y="550" width="220" height="120" as="geometry" />
        </mxCell>
        <mxCell id="lhh4k5kdtOsZ4-ZnuEZc-32" value="1.Length&amp;amp;Character sets&lt;br&gt;2. copy to clipboard" style="align=left;strokeColor=none;fillColor=none;spacingLeft=4;fontSize=12;verticalAlign=top;resizable=0;rotatable=0;part=1;html=1;" vertex="1" parent="lhh4k5kdtOsZ4-ZnuEZc-31">
          <mxGeometry y="50" width="220" height="70" as="geometry" />
        </mxCell>
        <mxCell id="lhh4k5kdtOsZ4-ZnuEZc-50" style="edgeStyle=orthogonalEdgeStyle;rounded=0;orthogonalLoop=1;jettySize=auto;html=1;exitX=0.5;exitY=1;exitDx=0;exitDy=0;" edge="1" parent="lhh4k5kdtOsZ4-ZnuEZc-31" source="lhh4k5kdtOsZ4-ZnuEZc-32" target="lhh4k5kdtOsZ4-ZnuEZc-32">
          <mxGeometry relative="1" as="geometry" />
        </mxCell>
        <mxCell id="lhh4k5kdtOsZ4-ZnuEZc-51" style="edgeStyle=orthogonalEdgeStyle;rounded=0;orthogonalLoop=1;jettySize=auto;html=1;exitX=0.5;exitY=1;exitDx=0;exitDy=0;" edge="1" parent="lhh4k5kdtOsZ4-ZnuEZc-31" source="lhh4k5kdtOsZ4-ZnuEZc-32" target="lhh4k5kdtOsZ4-ZnuEZc-32">
          <mxGeometry relative="1" as="geometry" />
        </mxCell>
        <mxCell id="lhh4k5kdtOsZ4-ZnuEZc-52" style="edgeStyle=orthogonalEdgeStyle;rounded=0;orthogonalLoop=1;jettySize=auto;html=1;exitX=0.5;exitY=1;exitDx=0;exitDy=0;" edge="1" parent="lhh4k5kdtOsZ4-ZnuEZc-31" source="lhh4k5kdtOsZ4-ZnuEZc-32" target="lhh4k5kdtOsZ4-ZnuEZc-32">
          <mxGeometry relative="1" as="geometry" />
        </mxCell>
        <mxCell id="lhh4k5kdtOsZ4-ZnuEZc-38" value="Features for security" style="swimlane;childLayout=stackLayout;horizontal=1;startSize=50;horizontalStack=0;rounded=1;fontSize=14;fontStyle=0;strokeWidth=2;resizeParent=0;resizeLast=1;shadow=0;align=center;arcSize=4;whiteSpace=wrap;html=1;" vertex="1" parent="1">
          <mxGeometry x="450" y="720" width="250" height="150" as="geometry" />
        </mxCell>
        <mxCell id="lhh4k5kdtOsZ4-ZnuEZc-39" value="1.Detecs duplicated passwords&lt;br&gt;2.Secures data storage in MySQL&lt;br&gt;3.Guidance for stronger passwords" style="align=left;strokeColor=none;fillColor=none;spacingLeft=4;fontSize=12;verticalAlign=top;resizable=0;rotatable=0;part=1;html=1;" vertex="1" parent="lhh4k5kdtOsZ4-ZnuEZc-38">
          <mxGeometry y="50" width="250" height="100" as="geometry" />
        </mxCell>
        <mxCell id="lhh4k5kdtOsZ4-ZnuEZc-40" style="edgeStyle=orthogonalEdgeStyle;rounded=0;orthogonalLoop=1;jettySize=auto;html=1;exitX=0.5;exitY=1;exitDx=0;exitDy=0;entryX=0.5;entryY=0;entryDx=0;entryDy=0;" edge="1" parent="1" source="lhh4k5kdtOsZ4-ZnuEZc-32" target="lhh4k5kdtOsZ4-ZnuEZc-38">
          <mxGeometry relative="1" as="geometry" />
        </mxCell>
        <mxCell id="lhh4k5kdtOsZ4-ZnuEZc-47" style="edgeStyle=orthogonalEdgeStyle;rounded=0;orthogonalLoop=1;jettySize=auto;html=1;" edge="1" parent="1" source="lhh4k5kdtOsZ4-ZnuEZc-39" target="lhh4k5kdtOsZ4-ZnuEZc-16">
          <mxGeometry relative="1" as="geometry" />
        </mxCell>
        <mxCell id="lhh4k5kdtOsZ4-ZnuEZc-49" style="edgeStyle=orthogonalEdgeStyle;rounded=0;orthogonalLoop=1;jettySize=auto;html=1;entryX=0.5;entryY=0;entryDx=0;entryDy=0;entryPerimeter=0;" edge="1" parent="1" source="lhh4k5kdtOsZ4-ZnuEZc-31" target="lhh4k5kdtOsZ4-ZnuEZc-16">
          <mxGeometry relative="1" as="geometry" />
        </mxCell>
        <mxCell id="lhh4k5kdtOsZ4-ZnuEZc-62" value="&lt;font style=&quot;font-size: 13px;&quot;&gt;Saves passwords used to a clipboard and password has to meet length and character requirments&lt;/font&gt;" style="edgeLabel;html=1;align=center;verticalAlign=middle;resizable=0;points=[];" vertex="1" connectable="0" parent="lhh4k5kdtOsZ4-ZnuEZc-49">
          <mxGeometry x="0.4217" y="-2" relative="1" as="geometry">
            <mxPoint x="-44" y="-18" as="offset" />
          </mxGeometry>
        </mxCell>
        <mxCell id="lhh4k5kdtOsZ4-ZnuEZc-57" style="edgeStyle=orthogonalEdgeStyle;rounded=0;orthogonalLoop=1;jettySize=auto;html=1;entryX=0.448;entryY=0.033;entryDx=0;entryDy=0;entryPerimeter=0;" edge="1" parent="1" source="lhh4k5kdtOsZ4-ZnuEZc-28" target="lhh4k5kdtOsZ4-ZnuEZc-29">
          <mxGeometry relative="1" as="geometry" />
        </mxCell>
        <mxCell id="lhh4k5kdtOsZ4-ZnuEZc-60" style="edgeStyle=orthogonalEdgeStyle;rounded=0;orthogonalLoop=1;jettySize=auto;html=1;exitX=0;exitY=0.25;exitDx=0;exitDy=0;entryX=1;entryY=0.25;entryDx=0;entryDy=0;" edge="1" parent="1" source="lhh4k5kdtOsZ4-ZnuEZc-28" target="lhh4k5kdtOsZ4-ZnuEZc-26">
          <mxGeometry relative="1" as="geometry" />
        </mxCell>
        <mxCell id="lhh4k5kdtOsZ4-ZnuEZc-61" value="&lt;font style=&quot;font-size: 15px;&quot;&gt;System includes these security features&lt;/font&gt;" style="text;html=1;align=center;verticalAlign=middle;resizable=0;points=[];autosize=1;strokeColor=none;fillColor=none;" vertex="1" parent="1">
          <mxGeometry x="45" y="820" width="290" height="30" as="geometry" />
        </mxCell>
        <mxCell id="lhh4k5kdtOsZ4-ZnuEZc-65" style="edgeStyle=orthogonalEdgeStyle;rounded=0;orthogonalLoop=1;jettySize=auto;html=1;entryX=0.5;entryY=0;entryDx=0;entryDy=0;entryPerimeter=0;" edge="1" parent="1" source="lhh4k5kdtOsZ4-ZnuEZc-25" target="lhh4k5kdtOsZ4-ZnuEZc-15">
          <mxGeometry relative="1" as="geometry" />
        </mxCell>
        <mxCell id="lhh4k5kdtOsZ4-ZnuEZc-66" value="&lt;span style=&quot;font-size: 14px;&quot;&gt;User deals with registrations,passwords and incorrect attempts&lt;/span&gt;" style="text;html=1;align=center;verticalAlign=middle;resizable=0;points=[];autosize=1;strokeColor=none;fillColor=none;" vertex="1" parent="1">
          <mxGeometry x="-245" y="158" width="410" height="30" as="geometry" />
        </mxCell>
      </root>
    </mxGraphModel>
  </diagram>
</mxfile>
